#!OML:ASF E:/inclinewalkrobotboard/Project1/Captureday1/Session1/subject1.ASF
:FULLY-SPECIFIED
:DEGREES
188
root 0 0 0 -0.9729488647277833 -2.7691163937939525 -2.4750948940118835
lowerback 9.37944551350089 0.35203413788592175 0.6645745811318089
upperback -0.03376798955027205 0.6839300681461651 1.7389143120951618
thorax -5.192740703092083 0.35551927270029365 1.3595297711458123
lowerneck -16.463810640780885 -2.9657922572023487 -1.9348296031491672
upperneck 19.882684490737393 -3.8006000427699287 0.6968324208055754
head 9.050443977561262 -1.8443391945376932 0.08035992935536318
rclavicle -6.575965029766899E-16 -4.799677333614471E-16
rhumerus -23.63699384382243 -18.8812206541999 -74.85372597851476
rradius 27.041253523120915
rwrist 6.531427624913359
rhand -15.762554116083082 20.929416675729165
rfingers 7.125020000000032
rthumb 10.407169666639504 -8.543240477862147
lclavicle -6.574336149894902E-16 -3.202224627688123E-16
lhumerus -29.629741485124995 1.4385578060428141 77.98569262745004
lradius 28.754382558923048
lwrist 3.1295336702847045
lhand -23.790033396035962 23.324924655374726
lfingers 7.125020000000039
lthumb 2.625817376286104 52.999676789131954
rfemur -2.0825886771119 -8.646511450716972 13.505023871342203
rtibia 39.00508580968729
rfoot -9.044237289726471 -8.259286353314687
rtoes 6.445603587504941
lfemur -14.231803419689541 -0.5144339765319899 -20.78388577573908
ltibia 34.32421368177064
lfoot -9.174492046646023 -0.43444073184122445
ltoes -2.041966468958906
189
root 0 0 0 -1.15118677549399 -2.67894931761278 -2.4333466427120998
lowerback 9.470250717825365 0.3483800012935939 0.6785840863093546
upperback 0.027479140264469848 0.6806473025764826 1.734982372812554
thorax -5.178298245502306 0.3531692989299441 1.3458124113625103
lowerneck -16.500930840333957 -2.9856987045780174 -1.9473419697428582
upperneck 19.857126511911954 -3.821974059975032 0.6780338729587903
head 9.046385438108329 -1.8559525395908096 0.07449946584353229
rclavicle -6.595254383736804E-16 -4.804898138022433E-16
rhumerus -23.88341874246855 -18.856223751051637 -75.01169423283375
rradius 27.03626568063382
rwrist 6.413044477767944
rhand -15.869904411223272 21.01729281131827
rfingers 7.125020000000035
rthumb 10.303839900168624 -8.467874850622255
lclavicle -6.621161611856724E-16 -3.134578199661391E-16
lhumerus -29.766972055751765 1.4090959655673503 78.2031536685558
lradius 28.71831138476664
lwrist 3.230159990679594
lhand -23.945202526831228 23.320837416202977
lfingers 7.125020000000042
lthumb 2.4757545359294326 53.012761644447494
rfemur -2.649928126615066 -7.958037607510974 14.17374240780218
rtibia 38.97910671812072
rfoot -8.96772776848881 -8.16975931525204
rtoes 6.315595158394398
lfemur -13.955726558719007 -0.593863277719576 -20.722300707575407
ltibia 34.2257570948141
lfoot -9.082979001401991 -0.5685200894302227
ltoes -2.14905561488224
190
root 0 0 0 -1.0914567599466096 -2.7079425132802903 -2.447222553608687
lowerback 9.439407305941284 0.34940780461944754 0.6736926028630799
upperback 0.0066859413631892295 0.6815587389733581 1.7363429993326545
thorax -5.183077614358171 0.3538567677119147 1.3506835273331075
lowerneck -16.488199672197943 -2.9793087088008496 -1.9433027066994906
upperneck 19.866439624527132 -3.8153696187076838 0.6842243954233815
head 9.047902288807636 -1.852355222428172 0.07639652642535633
rclavicle -6.599249608354705E-16 -4.80606040331301E-16
rhumerus -23.842200981588384 -18.861312307683185 -74.97984426125223
rradius 27.037330871956215
rwrist 6.434907300038496
rhand -15.850684747239534 21.001681300510075
rfingers 7.125020000000034
rthumb 10.323033508856831 -8.481853474582856
lclavicle -6.610061923680879E-16 -3.1554907918495003E-16
lhumerus -29.738069494569267 1.4143238395044353 78.15732400935144
lradius 28.72671488336416
lwrist 3.2109665137174375
lhand -23.911243408902408 23.321077315381398
lfingers 7.125020000000041
lthumb 2.508233898886658 53.009500594543255
rfemur -2.5004509475670744 -8.13979507678323 14.00011244860525
rtibia 38.982538400223454
rfoot -8.98890264057441 -8.19383757915795
rtoes 6.349103464725832
lfemur -14.002847028559621 -0.5810731271079383 -20.73263394782854
ltibia 34.241459686234364
lfoot -9.098445616797443 -0.5450725109962775
ltoes -2.1300971614106476
191
root 0 0 0 -1.0401660718418633 -2.7365492287285473 -2.4599308117718053
lowerback 9.41391724336858 0.3508779183640248 0.6700201808493045
upperback -0.010596488292211603 0.6828795949033802 1.7371829685100044
thorax -5.1874053741041175 0.354756240738194 1.3541660047678916
lowerneck -16.47806355989573 -2.9730172440159848 -1.93932079059541
upperneck 19.872542090631814 -3.808492179844687 0.6898899989148526
head 9.048669579482732 -1.8484864258615499 0.0781931010064637
rclavicle -6.591775126538793E-16 -4.786967214453111E-16
rhumerus -23.74780935511601 -18.86998635636763 -74.92293951120463
rradius 27.0384318294035
rwrist 6.480862153043404
rhand -15.809535534196433 20.968080468101427
rfingers 7.125020000000033
rthumb 10.362325392841065 -8.510356635491302
lclavicle -6.594290193682404E-16 -3.174755746359393E-16
lhumerus -29.69175182202246 1.4246574591298362 78.08360325930579
lradius 28.738385382783626
lwrist 3.175887519343876
lhand -23.858749004456445 23.322770916431406
lfingers 7.12502000000004
lthumb 2.55902434210104 53.00528322890091
rfemur -2.3343174095692376 -8.341641718704963 13.801919554023144
rtibia 38.992913959706186
rfoot -9.010263424434532 -8.219923556226735
rtoes 6.388220606075528
lfemur -14.10491279935836 -0.5510383928205869 -20.755071441696934
ltibia 34.280106646287166
lfoot -9.131085728595158 -0.49609650666858585
ltoes -2.0905850133103208
